<svg width="322" height="346" viewBox="0 0 322 346" fill="none" xmlns="http://www.w3.org/2000/svg">
<path d="M33.415 98.9824C33.4555 98.9556 33.5241 98.9106 33.6064 98.8672C33.614 98.8631 33.6226 98.8587 33.6309 98.8545C33.6354 98.8522 33.6402 98.8493 33.6455 98.8467L158.429 31.6377L158.728 31.4883C160.244 30.7908 162.029 30.8406 163.507 31.6377L288.011 98.6875L288.046 98.6777L288.407 98.877C289.994 99.7538 291 101.387 291 103.181V240.927C291 242.722 289.993 244.35 288.409 245.229L288.407 245.23L163.569 314.335L163.565 314.337C162.762 314.777 161.873 315 160.976 315C160.079 315 159.185 314.777 158.384 314.335H158.382L33.5918 245.241V245.24C32.0003 244.362 31 242.729 31 240.938V103.181C31 102.958 31.0149 102.733 31.0459 102.513C31.0565 102.437 31.0714 102.374 31.0801 102.337C31.0829 102.325 31.09 102.296 31.0908 102.293C31.0911 102.292 31.0916 102.291 31.0918 102.29C31.1097 102.191 31.1389 102.027 31.1865 101.863V101.862C31.2062 101.795 31.2273 101.735 31.2422 101.694C31.2611 101.643 31.267 101.63 31.2764 101.604C31.2917 101.56 31.3419 101.404 31.4004 101.269C31.4014 101.266 31.4023 101.264 31.4033 101.262C31.4042 101.26 31.4044 101.257 31.4053 101.255H31.4062C31.4411 101.174 31.477 101.107 31.499 101.066C31.5294 101.011 31.5328 101.005 31.54 100.99L31.541 100.988C31.5466 100.977 31.6207 100.82 31.6973 100.692H31.6953C31.6995 100.685 31.7048 100.679 31.709 100.672C31.7114 100.668 31.7134 100.663 31.7158 100.659H31.7178C31.7619 100.587 31.8033 100.527 31.8291 100.492C31.8677 100.44 31.8718 100.435 31.8789 100.424L31.8857 100.413L31.8926 100.403C31.9237 100.359 31.9974 100.251 32.0654 100.161L32.0771 100.146L32.0879 100.133C32.1567 100.049 32.2427 99.9592 32.2891 99.9102C32.3399 99.8516 32.429 99.7484 32.5312 99.6514C32.6216 99.5656 32.7169 99.4882 32.7822 99.4365C32.8406 99.3845 32.936 99.3006 33.042 99.2236C33.1584 99.1385 33.3003 99.0556 33.3398 99.0312L33.3418 99.0303C33.3567 99.0212 33.3623 99.0174 33.415 98.9824ZM166.149 270.911V301.427L275.519 240.886L248.234 225.473L166.149 270.911ZM46.4639 240.896L155.786 301.423V270.907L73.7363 225.48L46.4639 240.896ZM166.149 173.313V259.438L243.078 216.854V131.894L166.149 173.313ZM78.8896 216.861L155.786 259.435V173.314L78.8896 131.895V216.861ZM41.3594 232.247L68.5264 216.894V126.312L41.3594 111.677V232.247ZM253.445 126.309V216.882L280.624 232.235V111.674L253.445 126.309ZM84.29 123.4L160.967 164.7L237.656 123.4L160.967 82.1006L84.29 123.4ZM166.149 73.4961L248.247 117.704L275.199 103.188L166.149 44.4629V73.4961ZM46.7588 103.18L73.7109 117.698L155.786 73.4912V44.4541L46.7588 103.18ZM33.5801 98.8857L33.5781 98.8877L33.5859 98.8828L33.5801 98.8857ZM33.5986 98.8711C33.5904 98.8756 33.5849 98.8788 33.583 98.8799C33.5857 98.8784 33.5897 98.8758 33.5947 98.873C33.596 98.8724 33.5973 98.8718 33.5986 98.8711Z" fill="white"/>
<path d="M33.415 98.9824C33.4555 98.9556 33.5241 98.9106 33.6064 98.8672C33.614 98.8631 33.6226 98.8587 33.6309 98.8545C33.6354 98.8522 33.6402 98.8493 33.6455 98.8467L158.429 31.6377L158.728 31.4883C160.244 30.7908 162.029 30.8406 163.507 31.6377L288.011 98.6875L288.046 98.6777L288.407 98.877C289.994 99.7538 291 101.387 291 103.181V240.927C291 242.722 289.993 244.35 288.409 245.229L288.407 245.23L163.569 314.335L163.565 314.337C162.762 314.777 161.873 315 160.976 315C160.079 315 159.185 314.777 158.384 314.335H158.382L33.5918 245.241V245.24C32.0003 244.362 31 242.729 31 240.938V103.181C31 102.958 31.0149 102.733 31.0459 102.513C31.0565 102.437 31.0714 102.374 31.0801 102.337C31.0829 102.325 31.09 102.296 31.0908 102.293C31.0911 102.292 31.0916 102.291 31.0918 102.29C31.1097 102.191 31.1389 102.027 31.1865 101.863V101.862C31.2062 101.795 31.2273 101.735 31.2422 101.694C31.2611 101.643 31.267 101.63 31.2764 101.604C31.2917 101.56 31.3419 101.404 31.4004 101.269C31.4014 101.266 31.4023 101.264 31.4033 101.262C31.4042 101.26 31.4044 101.257 31.4053 101.255H31.4062C31.4411 101.174 31.477 101.107 31.499 101.066C31.5294 101.011 31.5328 101.005 31.54 100.99L31.541 100.988C31.5466 100.977 31.6207 100.82 31.6973 100.692H31.6953C31.6995 100.685 31.7048 100.679 31.709 100.672C31.7114 100.668 31.7134 100.663 31.7158 100.659H31.7178C31.7619 100.587 31.8033 100.527 31.8291 100.492C31.8677 100.44 31.8718 100.435 31.8789 100.424L31.8857 100.413L31.8926 100.403C31.9237 100.359 31.9974 100.251 32.0654 100.161L32.0771 100.146L32.0879 100.133C32.1567 100.049 32.2427 99.9592 32.2891 99.9102C32.3399 99.8516 32.429 99.7484 32.5312 99.6514C32.6216 99.5656 32.7169 99.4882 32.7822 99.4365C32.8406 99.3845 32.936 99.3006 33.042 99.2236C33.1584 99.1385 33.3003 99.0556 33.3398 99.0312L33.3418 99.0303C33.3567 99.0212 33.3623 99.0174 33.415 98.9824ZM166.149 270.911V301.427L275.519 240.886L248.234 225.473L166.149 270.911ZM46.4639 240.896L155.786 301.423V270.907L73.7363 225.48L46.4639 240.896ZM166.149 173.313V259.438L243.078 216.854V131.894L166.149 173.313ZM78.8896 216.861L155.786 259.435V173.314L78.8896 131.895V216.861ZM41.3594 232.247L68.5264 216.894V126.312L41.3594 111.677V232.247ZM253.445 126.309V216.882L280.624 232.235V111.674L253.445 126.309ZM84.29 123.4L160.967 164.7L237.656 123.4L160.967 82.1006L84.29 123.4ZM166.149 73.4961L248.247 117.704L275.199 103.188L166.149 44.4629V73.4961ZM46.7588 103.18L73.7109 117.698L155.786 73.4912V44.4541L46.7588 103.18ZM33.5801 98.8857L33.5781 98.8877L33.5859 98.8828L33.5801 98.8857ZM33.5986 98.8711C33.5904 98.8756 33.5849 98.8788 33.583 98.8799C33.5857 98.8784 33.5897 98.8758 33.5947 98.873C33.596 98.8724 33.5973 98.8718 33.5986 98.8711Z" stroke="white" stroke-width="2"/>
<path d="M33.415 98.9824C33.4555 98.9556 33.5241 98.9106 33.6064 98.8672C33.614 98.8631 33.6226 98.8587 33.6309 98.8545C33.6354 98.8522 33.6402 98.8493 33.6455 98.8467L158.429 31.6377L158.728 31.4883C160.244 30.7908 162.029 30.8406 163.507 31.6377L288.011 98.6875L288.046 98.6777L288.407 98.877C289.994 99.7538 291 101.387 291 103.181V240.927C291 242.722 289.993 244.35 288.409 245.229L288.407 245.23L163.569 314.335L163.565 314.337C162.762 314.777 161.873 315 160.976 315C160.079 315 159.185 314.777 158.384 314.335H158.382L33.5918 245.241V245.24C32.0003 244.362 31 242.729 31 240.938V103.181C31 102.958 31.0149 102.733 31.0459 102.513C31.0565 102.437 31.0714 102.374 31.0801 102.337C31.0829 102.325 31.09 102.296 31.0908 102.293C31.0911 102.292 31.0916 102.291 31.0918 102.29C31.1097 102.191 31.1389 102.027 31.1865 101.863V101.862C31.2062 101.795 31.2273 101.735 31.2422 101.694C31.2611 101.643 31.267 101.63 31.2764 101.604C31.2917 101.56 31.3419 101.404 31.4004 101.269C31.4014 101.266 31.4023 101.264 31.4033 101.262C31.4042 101.26 31.4044 101.257 31.4053 101.255H31.4062C31.4411 101.174 31.477 101.107 31.499 101.066C31.5294 101.011 31.5328 101.005 31.54 100.99L31.541 100.988C31.5466 100.977 31.6207 100.82 31.6973 100.692H31.6953C31.6995 100.685 31.7048 100.679 31.709 100.672C31.7114 100.668 31.7134 100.663 31.7158 100.659H31.7178C31.7619 100.587 31.8033 100.527 31.8291 100.492C31.8677 100.44 31.8718 100.435 31.8789 100.424L31.8857 100.413L31.8926 100.403C31.9237 100.359 31.9974 100.251 32.0654 100.161L32.0771 100.146L32.0879 100.133C32.1567 100.049 32.2427 99.9592 32.2891 99.9102C32.3399 99.8516 32.429 99.7484 32.5312 99.6514C32.6216 99.5656 32.7169 99.4882 32.7822 99.4365C32.8406 99.3845 32.936 99.3006 33.042 99.2236C33.1584 99.1385 33.3003 99.0556 33.3398 99.0312L33.3418 99.0303C33.3567 99.0212 33.3623 99.0174 33.415 98.9824ZM166.149 270.911V301.427L275.519 240.886L248.234 225.473L166.149 270.911ZM46.4639 240.896L155.786 301.423V270.907L73.7363 225.48L46.4639 240.896ZM166.149 173.313V259.438L243.078 216.854V131.894L166.149 173.313ZM78.8896 216.861L155.786 259.435V173.314L78.8896 131.895V216.861ZM41.3594 232.247L68.5264 216.894V126.312L41.3594 111.677V232.247ZM253.445 126.309V216.882L280.624 232.235V111.674L253.445 126.309ZM84.29 123.4L160.967 164.7L237.656 123.4L160.967 82.1006L84.29 123.4ZM166.149 73.4961L248.247 117.704L275.199 103.188L166.149 44.4629V73.4961ZM46.7588 103.18L73.7109 117.698L155.786 73.4912V44.4541L46.7588 103.18ZM33.5801 98.8857L33.5781 98.8877L33.5859 98.8828L33.5801 98.8857ZM33.5986 98.8711C33.5904 98.8756 33.5849 98.8788 33.583 98.8799C33.5857 98.8784 33.5897 98.8758 33.5947 98.873C33.596 98.8724 33.5973 98.8718 33.5986 98.8711Z" stroke="black" stroke-width="2"/>
</svg>
